<?xml version="1.0" encoding="UTF-8"?>
<svg id="Calque_1" xmlns="http://www.w3.org/2000/svg" xmlns:xlink="http://www.w3.org/1999/xlink" version="1.1" viewBox="0 0 343.29 238.66">
  <!-- Generator: Adobe Illustrator 30.1.0, SVG Export Plug-In . SVG Version: 2.1.1 Build 136)  -->
  <defs>
    <style>
      .st0 {
        fill: none;
      }

      .st1 {
        fill: #398365;
      }

      .st2 {
        fill: #fff;
      }

      .st3 {
        fill: #333132;
      }

      .st4 {
        clip-path: url(#clippath);
      }
    </style>
    <clipPath id="clippath">
      <path class="st0" d="M158.32,190.47c-2.46-.98-4.86-2.15-7.14-3.45-3.38,2.65-7.81,4-13.29,4-9.84,0-16.67-4.98-16.67-13.78,0-5.29,2.52-9.6,6.95-12.73-.98-2.21-1.6-4.43-1.6-6.46,0-7.94,5.54-13.35,13.6-13.35s13.41,4.68,13.41,11.94c0,1.6-.43,3.63-1.05,4.74h-8.61c.37-.61.61-1.91.61-2.95,0-2.83-1.41-4.49-3.94-4.49-2.71,0-4.18,1.6-4.18,4.61,0,3.88,2.28,7.26,6.4,11.2,1.48,1.41,3.51,3.32,6.03,5.23.43-1.66.62-3.57.62-5.84h8.92c-.06,4.18-.74,7.81-1.97,10.83,1.72.98,3.57,1.85,5.48,2.58l-3.57,7.94ZM143.55,181.98c-2.4-1.78-4.55-3.57-6.52-5.41-1.35-1.23-2.95-3.01-4.55-5.11-.92,1.35-1.23,2.58-1.23,4.12,0,4.43,2.89,7.2,7.57,7.2,1.78,0,3.38-.25,4.74-.8Z"/>
    </clipPath>
  </defs>
  <g>
    <g id="wRCEBU">
      <g>
        <path class="st3" d="M160.94,58.33l-100.74,42.31-.56-1.07,101.52-42.65,52.03,14.91-.59,1.03-50.59-14.53v6.22c0,.28.45,1.02.16,1.62l62.05,15.79v.72c-.9.49-2.85-.14-3.92-.36-11.73-2.39-23.23-6.28-34.97-8.68l-42.51,13.47,51.49,8.23.4,31.94,31.28-2.48v1.06s-25.06,1.78-25.06,1.78l-74.14,6.73-35.16-3.54c-.08-.62.81-.33,1.24-.35,3.22-.14,6.96.37,10.13.71v-3.2s-43.36,1.06-43.36,1.06l3.02-.7,22.21-.71v-21.33l-22.92-.71-.89-1.06,99.88-38.04v-8.18ZM183.33,72.91l-20.53-5.26h-1.6s-96.24,36.89-96.24,36.89l37.51,1.34.53-.81v-10.47s-24.37,9.14-24.37,9.14l-.52-.97,47.25-17.98c5.17-.63,10.25,1.65,15.4,1.54l42.56-13.42ZM193.29,96l-67.18-10.31.15,47.29,67.34-5.74-.31-31.24ZM104.07,93.87v37.32l21.33,2.13-.36-47.27-20.97,7.82ZM103.01,107.02l-17.06-.71v20.97l17.06-.36v-19.9Z"/>
        <path class="st2" d="M214.44,58.68c8.53.96,17.88,7.01,22.28,14.34,3.12,5.19,4.14,11.15,6.43,16.67l1.32,5.25c-.25-1.77.31-3.44.38-5.14.26-6.87-.54-15.87-1.49-22.71-.56-3.99-.7-7.05-3.32-10.19-2.83-3.38-6.14-6.03-8.51-9.98-5.46-9.08-2.67-21.04-.91-30.9,1.02-.9,6.65,6,7.4,7,6.75,9.04,9.15,16.18,7.08,27.56-.44,2.43-2.09,6.41-2.05,8.61.07,3.45,1.74,9.22,2.14,13.17.32,3.14.9,6.45.75,9.6-.04.77-.02,1.01.03,1.58.07-.11.2-.31.28-.52.93-2.52,2.01-5.45,2.42-7.54.64-3.27.35-6.58,1.33-10.04,2.44-8.66,10.75-15.6,19.37-17.42-2.78,7.72-3.87,16.13-10.5,21.67-2.57,2.15-8.01,4.32-9.48,6.87-3.62,6.29-3.64,19.38-4.59,26.68-1.69,12.91-5.87,26.78-14.35,36.83-.78-.58-.4-.55-.1-1.16,1.09-2.19,3.31-4.75,4.61-7.13,6.74-12.36,12.25-32.93,5.46-46.1-2.7-5.24-8.61-5.69-13.23-8.46-5.37-3.22-8.15-8.51-12.39-12.66-1.33-1.3-4.89-3.78-5.52-4.61-.12-.16-.2-.29-.26-.43-.17-.4.1-.86.53-.91,1.73-.17,3.35-.11,4.9.07ZM242.69,55.48c5.1-14.46-.28-28.29-11.37-38.03-1.08,8.43-3.63,18.74.05,26.78,2.16,4.72,6.72,8.95,10.25,12.67-1.12-7.38-2.6-14.67-5.17-21.67-.12-.33-.47-1.16.19-1.08l2.83,7.31,3.22,14.02ZM250.87,73.61c3.57-2.32,7.58-4.25,10.24-7.7,3.43-4.44,4.73-11.18,6.46-16.47-9.72,3.61-17.21,11.58-17.41,22.39,2.91-4.12,5.29-8.64,9.06-12.08.26-.06.24.37.17.53-.36.82-1.45,1.47-3.83,5.49l-4.69,7.84ZM238.43,79.65c-3.76-12.16-15.62-19.09-27.89-20.28l6.82,5.84c3.56,3.62,5.36,7.29,8.31,9.61,3.45,2.71,7.8,3.66,11.52,5.89.24.08.26-.34.17-.53-.22-.47-3.27-3.95-3.9-4.63-2.7-2.98-5.76-5.66-8.89-8.17-.06-.26.36-.24.53-.17,1.03.42,6.17,4.82,7.3,5.86,2.2,2.03,4.08,4.33,6.03,6.58Z"/>
      </g>
    </g>
    <g>
      <path class="st3" d="M49.68,146.78h10.52v43.06h-10.52v-43.06Z"/>
      <path class="st3" d="M68.56,146.78h9.35l14.09,23.93,1.29,2.89v-26.82h9.91v43.06h-9.35l-14.46-23.93-.86-2.15v26.08h-9.97v-43.06Z"/>
      <path class="st2" d="M158.32,190.47c-2.46-.98-4.86-2.15-7.14-3.45-3.38,2.65-7.81,4-13.29,4-9.84,0-16.67-4.98-16.67-13.78,0-5.29,2.52-9.6,6.95-12.73-.98-2.21-1.6-4.43-1.6-6.46,0-7.94,5.54-13.35,13.6-13.35s13.41,4.68,13.41,11.94c0,1.6-.43,3.63-1.05,4.74h-8.61c.37-.61.61-1.91.61-2.95,0-2.83-1.41-4.49-3.94-4.49-2.71,0-4.18,1.6-4.18,4.61,0,3.88,2.28,7.26,6.4,11.2,1.48,1.41,3.51,3.32,6.03,5.23.43-1.66.62-3.57.62-5.84h8.92c-.06,4.18-.74,7.81-1.97,10.83,1.72.98,3.57,1.85,5.48,2.58l-3.57,7.94ZM143.55,181.98c-2.4-1.78-4.55-3.57-6.52-5.41-1.35-1.23-2.95-3.01-4.55-5.11-.92,1.35-1.23,2.58-1.23,4.12,0,4.43,2.89,7.2,7.57,7.2,1.78,0,3.38-.25,4.74-.8Z"/>
      <path class="st3" d="M175.42,168.38c0-14.76,8.92-22.39,20.18-22.39s20.12,7.01,20.12,22.39-8.92,22.27-20.18,22.27-20.12-6.89-20.12-22.27ZM204.7,168.38c0-9.66-4.12-12.92-9.11-12.92s-9.17,3.32-9.17,12.92,4.06,13.04,9.11,13.04,9.17-3.45,9.17-13.04Z"/>
      <path class="st3" d="M221.44,171.95l.06-25.16h10.52v26.02c0,4.12,1.48,8,6.71,8s6.52-3.88,6.52-8v-26.02h10.46v25.16c0,13.72-7.81,18.27-17.04,18.27s-17.29-4.55-17.23-18.27Z"/>
      <path class="st3" d="M272.68,156.26h-12.49v-9.47h34.88v9.47h-11.87v33.59h-10.52v-33.59Z"/>
    </g>
  </g>
  <g>
    <path class="st2" d="M25.26,219.57l4.04-11.25h1.18l4.04,11.25h-1.27l-1.2-3.51h-4.33l-1.2,3.51h-1.27ZM29.87,209.82l-1.8,5.25h3.65l-1.8-5.25h-.05Z"/>
    <path class="st2" d="M36.74,210.94h1.19v1.38h.06c.22-.6.87-1.52,2.44-1.52.19,0,.37.02.54.04v1.11c-.13-.02-.4-.04-.68-.04-1.52,0-2.36.93-2.36,2.22v5.44h-1.19v-8.64Z"/>
    <path class="st2" d="M42.6,214.49c0-2.26,1.36-3.7,3.51-3.7s3.19,1.34,3.24,2.54h-1.19c-.11-.56-.57-1.45-2.03-1.45s-2.34,1.03-2.34,2.67v1.44c0,1.63.89,2.63,2.35,2.63s1.91-.66,2.08-1.34h1.19c-.06,1.15-1.04,2.42-3.29,2.42s-3.51-1.42-3.51-3.72v-1.5Z"/>
    <path class="st2" d="M51.92,207.72h1.19v4.83h.07c.18-.64.91-1.75,2.72-1.75,1.68,0,2.92.97,2.92,2.9v5.88h-1.2v-5.5c0-1.4-.78-2.21-2.07-2.21-1.62,0-2.44,1.28-2.44,2.85v4.87h-1.19v-11.85Z"/>
    <path class="st2" d="M62.64,207.35c.53,0,.93.39.93.93s-.4.91-.93.91-.91-.4-.91-.91c0-.54.4-.93.91-.93ZM62.06,210.94h1.19v8.64h-1.19v-8.64Z"/>
    <path class="st2" d="M66.96,208.78h1.19v2.16h2.03v1h-2.03v5.35c0,1.06.35,1.34,1.46,1.34.21,0,.56-.02.71-.04v1c-.13.02-.73.07-1,.07-1.97,0-2.36-.77-2.36-2.43v-5.3h-1.38v-1h1.38v-2.16Z"/>
    <path class="st2" d="M72.28,215.94v-1.34c0-2.34,1.45-3.8,3.49-3.8s3.49,1.46,3.49,3.8v.96h-5.78v.45c0,1.51.83,2.64,2.39,2.64,1.14,0,1.85-.57,2.01-1.14h1.26c-.13.89-1.15,2.19-3.26,2.19-2.28,0-3.6-1.48-3.6-3.78ZM78.07,214.63v-.14c0-1.61-.92-2.63-2.29-2.63s-2.29,1.02-2.29,2.63v.14h4.59Z"/>
    <path class="st2" d="M81.44,214.49c0-2.26,1.36-3.7,3.51-3.7s3.19,1.34,3.24,2.54h-1.19c-.11-.56-.57-1.45-2.03-1.45s-2.34,1.03-2.34,2.67v1.44c0,1.63.89,2.63,2.35,2.63s1.91-.66,2.08-1.34h1.19c-.06,1.15-1.04,2.42-3.29,2.42s-3.51-1.42-3.51-3.72v-1.5Z"/>
    <path class="st2" d="M90.76,207.72h1.19v4.83h.07c.18-.64.91-1.75,2.72-1.75,1.68,0,2.92.97,2.92,2.9v5.88h-1.2v-5.5c0-1.4-.78-2.21-2.07-2.21-1.62,0-2.44,1.28-2.44,2.85v4.87h-1.19v-11.85Z"/>
    <path class="st2" d="M101.13,208.78h1.19v2.16h2.03v1h-2.03v5.35c0,1.06.35,1.34,1.46,1.34.21,0,.56-.02.71-.04v1c-.13.02-.73.07-1,.07-1.97,0-2.36-.77-2.36-2.43v-5.3h-1.38v-1h1.38v-2.16Z"/>
    <path class="st2" d="M113.64,219.57h-1.2v-1.48h-.07c-.25.73-1.07,1.62-2.62,1.62-1.72,0-2.97-.77-2.97-2.76v-6.01h1.2v5.7c0,1.47.89,2.02,2.04,2.02,1.41,0,2.42-1.07,2.42-2.25v-5.47h1.2v8.64Z"/>
    <path class="st2" d="M116.84,210.94h1.19v1.38h.06c.21-.6.86-1.52,2.44-1.52.19,0,.37.02.54.04v1.11c-.13-.02-.4-.04-.68-.04-1.52,0-2.36.93-2.36,2.22v5.44h-1.19v-8.64Z"/>
    <path class="st2" d="M122.7,215.94v-1.34c0-2.34,1.45-3.8,3.49-3.8s3.49,1.46,3.49,3.8v.96h-5.78v.45c0,1.51.83,2.64,2.39,2.64,1.14,0,1.85-.57,2.01-1.14h1.26c-.13.89-1.15,2.19-3.26,2.19-2.28,0-3.6-1.48-3.6-3.78ZM128.48,214.63v-.14c0-1.61-.92-2.63-2.29-2.63s-2.29,1.02-2.29,2.63v.14h4.59Z"/>
    <path class="st2" d="M135.43,215.48v-1.06h5.2v1.06h-5.2Z"/>
    <path class="st2" d="M150.39,208.32c3.28,0,4.94,1.95,4.94,5.63s-1.65,5.63-4.94,5.63h-3.45v-11.25h3.45ZM148.14,218.47h2.2c2.52,0,3.74-1.53,3.74-4.52s-1.23-4.53-3.74-4.53h-2.2v9.05Z"/>
    <path class="st2" d="M157.7,215.94v-1.34c0-2.34,1.45-3.8,3.49-3.8s3.49,1.46,3.49,3.8v.96h-5.78v.45c0,1.51.83,2.64,2.39,2.64,1.14,0,1.85-.57,2.01-1.14h1.26c-.13.89-1.15,2.19-3.26,2.19-2.28,0-3.6-1.48-3.6-3.78ZM163.48,214.63v-.14c0-1.61-.92-2.63-2.29-2.63s-2.29,1.02-2.29,2.63v.14h4.59Z"/>
    <path class="st2" d="M169.96,210.8c1.88,0,3.01,1.03,3.01,2.37h-1.12c-.05-.63-.64-1.36-1.94-1.36-1.07,0-1.89.49-1.89,1.42,0,1.07,1.09,1.25,2.15,1.46,1.62.3,3.01.71,3.01,2.4s-1.4,2.63-3.34,2.63-3.17-.89-3.17-2.37h1.17c.11.79.67,1.38,2.05,1.38s2.1-.64,2.1-1.5c0-1.04-.99-1.26-2.22-1.5-1.63-.35-2.93-.71-2.93-2.37,0-1.76,1.48-2.56,3.11-2.56Z"/>
    <path class="st2" d="M176.54,207.35c.53,0,.93.39.93.93s-.4.91-.93.91-.91-.4-.91-.91c0-.54.4-.93.91-.93ZM175.95,210.94h1.19v8.64h-1.19v-8.64Z"/>
    <path class="st2" d="M185.86,219.36v-1.39h-.07c-.31.71-1.19,1.43-2.48,1.43-1.91,0-3.43-1.35-3.43-3.58v-1.43c0-2.25,1.53-3.6,3.42-3.6,1.37,0,2.29.82,2.57,1.49h.05v-1.35h1.14v8.38c0,2.29-1.46,3.39-3.68,3.39s-3.17-1.11-3.3-2.31h1.24c.11.64.84,1.25,2.11,1.25,1.62,0,2.43-.86,2.43-2.29ZM181.08,214.67v.86c0,1.68,1.03,2.8,2.47,2.8,1.51,0,2.32-1.24,2.32-2.54v-1.35c0-1.34-.87-2.58-2.33-2.58s-2.45,1.11-2.45,2.81Z"/>
    <path class="st2" d="M190.14,210.94h1.19v1.61h.07c.22-.72.84-1.75,2.66-1.75s2.95.96,2.95,2.88v5.9h-1.2v-5.52c0-1.4-.73-2.19-2.02-2.19-1.66,0-2.46,1.29-2.46,2.85v4.87h-1.19v-8.64Z"/>
    <path class="st2" d="M203.18,215.48v-1.06h5.2v1.06h-5.2Z"/>
    <path class="st2" d="M215.45,214.84c0,2.4,1.11,3.88,3.18,3.88,1.57,0,2.67-.88,2.82-2.14h1.2c-.16,1.85-1.82,3.23-4.03,3.23-2.84,0-4.38-1.86-4.38-4.96v-1.74c0-3.08,1.58-5.03,4.37-5.03,2.24,0,3.87,1.48,4.02,3.41h0s-1.2,0-1.2,0c-.14-1.3-1.25-2.31-2.81-2.31-2.02,0-3.17,1.53-3.17,3.95v1.71Z"/>
    <path class="st2" d="M232.16,214.58v1.36c0,2.42-1.57,3.78-3.64,3.78s-3.65-1.33-3.65-3.78v-1.36c0-2.34,1.57-3.78,3.65-3.78s3.64,1.36,3.64,3.78ZM226.07,214.72v1.1c0,1.76.94,2.84,2.47,2.84s2.43-1.07,2.43-2.84v-1.1c0-1.73-.97-2.85-2.43-2.85s-2.47,1.12-2.47,2.85Z"/>
    <path class="st2" d="M234.81,210.94h1.19v1.61h.07c.22-.72.84-1.75,2.66-1.75s2.95.96,2.95,2.88v5.9h-1.2v-5.52c0-1.4-.73-2.19-2.02-2.19-1.66,0-2.46,1.29-2.46,2.85v4.87h-1.19v-8.64Z"/>
    <path class="st2" d="M247.38,210.8c1.88,0,3.01,1.03,3.01,2.37h-1.12c-.05-.63-.64-1.36-1.94-1.36-1.07,0-1.89.49-1.89,1.42,0,1.07,1.09,1.25,2.15,1.46,1.62.3,3.01.71,3.01,2.4s-1.4,2.63-3.34,2.63-3.17-.89-3.17-2.37h1.17c.11.79.67,1.38,2.05,1.38s2.1-.64,2.1-1.5c0-1.04-.99-1.26-2.22-1.5-1.63-.35-2.93-.71-2.93-2.37,0-1.76,1.48-2.56,3.11-2.56Z"/>
    <path class="st2" d="M253.6,208.78h1.19v2.16h2.03v1h-2.03v5.35c0,1.06.35,1.34,1.46,1.34.21,0,.56-.02.71-.04v1c-.13.02-.73.07-1,.07-1.97,0-2.36-.77-2.36-2.43v-5.3h-1.38v-1h1.38v-2.16Z"/>
    <path class="st2" d="M259.48,210.94h1.19v1.38h.06c.21-.6.86-1.52,2.44-1.52.19,0,.37.02.54.04v1.11c-.13-.02-.4-.04-.68-.04-1.52,0-2.36.93-2.36,2.22v5.44h-1.19v-8.64Z"/>
    <path class="st2" d="M272.53,219.57h-1.2v-1.48h-.07c-.25.73-1.07,1.62-2.62,1.62-1.72,0-2.97-.77-2.97-2.76v-6.01h1.2v5.7c0,1.47.89,2.02,2.04,2.02,1.41,0,2.42-1.07,2.42-2.25v-5.47h1.2v8.64Z"/>
    <path class="st2" d="M275.18,214.49c0-2.26,1.36-3.7,3.51-3.7s3.19,1.34,3.24,2.54h-1.19c-.11-.56-.57-1.45-2.03-1.45s-2.34,1.03-2.34,2.67v1.44c0,1.63.89,2.63,2.35,2.63s1.91-.66,2.08-1.34h1.19c-.06,1.15-1.04,2.42-3.29,2.42s-3.51-1.42-3.51-3.72v-1.5Z"/>
    <path class="st2" d="M284.91,208.78h1.19v2.16h2.03v1h-2.03v5.35c0,1.06.35,1.34,1.46,1.34.21,0,.56-.02.71-.04v1c-.13.02-.73.07-1,.07-1.97,0-2.36-.77-2.36-2.43v-5.3h-1.38v-1h1.38v-2.16Z"/>
    <path class="st2" d="M291.45,207.35c.53,0,.93.39.93.93s-.4.91-.93.91-.91-.4-.91-.91c0-.54.4-.93.91-.93ZM290.87,210.94h1.19v8.64h-1.19v-8.64Z"/>
    <path class="st2" d="M302.19,214.58v1.36c0,2.42-1.57,3.78-3.64,3.78s-3.65-1.33-3.65-3.78v-1.36c0-2.34,1.57-3.78,3.65-3.78s3.64,1.36,3.64,3.78ZM296.1,214.72v1.1c0,1.76.94,2.84,2.47,2.84s2.43-1.07,2.43-2.84v-1.1c0-1.73-.97-2.85-2.43-2.85s-2.47,1.12-2.47,2.85Z"/>
    <path class="st2" d="M304.84,210.94h1.19v1.61h.07c.22-.72.84-1.75,2.66-1.75s2.95.96,2.95,2.88v5.9h-1.2v-5.52c0-1.4-.73-2.19-2.02-2.19-1.66,0-2.46,1.29-2.46,2.85v4.87h-1.19v-8.64Z"/>
  </g>
  <g class="st4">
    <g>
      <polygon class="st1" points="110.54 177.91 110.68 178.06 111.1 178.06 111.1 178.47 111.24 178.62 111.24 177.91 110.54 177.91"/>
      <polygon class="st1" points="104.05 169.72 103.2 170.57 104.37 171.74 104.37 169.72 104.05 169.72"/>
      <polygon class="st1" points="104.92 168.85 104.92 172.29 105.06 172.44 105.06 168.71 104.92 168.85"/>
      <polygon class="st1" points="128.78 194.89 127.52 194.89 128.78 196.16 128.78 194.95 128.78 194.89"/>
      <path class="st1" d="M163.81,215.46v-7.47h-.58s0-12.17,0-12.17h.58v-18.14s0,0,0,0l3.25-3.25-.35-.35,4.61-4.61.35.35,1.37-1.37-.03-.03h.03s0-1.94,0-1.94h-.58v-6.79s.58,0,.58,0v-1.94h-.03s.03-.03.03-.03l-1.37-1.37-.43.43-4.61-4.61.43-.43-3.25-3.25h0s0-3.89,0-3.89h-.1v-12.23s.1,0,.1,0v-3.88h4.17s1.47,0,1.47,0h.08s0-8.54,0-8.54h-.29s0-15.42,0-15.42l-.19.19v15.22s-.58,0-.58,0v-14.64s-.19.19-.19.19v14.45s-.29,0-.29,0v6.99s-4.17,0-4.17,0h-1.55s-15.42,0-15.42,0l-1.55,1.55h16.97s0,3.78,0,3.78h-4.88s.02.12.02.12c0,.02.3,1.56,1.18,3.07.99,1.72,2.33,2.75,3.91,3.02-1.58.27-2.92,1.3-3.91,3.02-.87,1.52-1.17,3.06-1.18,3.07l-.02.12h4.88v3.78s-4.4,0-4.4,0v1.55h4.4s.9,0,.9,0l2.8,2.8.39-.39,4.61,4.61-.39.39.92.92v1.32h.58s0,6.79,0,6.79h-.58s0,1.32,0,1.32l-.92.92.48.48-4.61,4.61-.48-.48-2.8,2.8h-.9s-21.31,0-21.31,0v-2.32h-1.55v2.32s0,1.55,0,1.55v12.1s0,0,0,0v.1s5.71,0,5.71,0c-.09.38-.41,1.65-1.13,2.9-1.14,1.98-2.68,2.99-4.58,2.99v.14h0v10.86l1.55,1.55v-12.61c1.27-.42,2.36-1.39,3.2-2.85.87-1.52,1.17-3.06,1.18-3.07l.02-.12h-4.4v-12.01h21.31s0,18.14,0,18.14h.58v12.17h-.58v5.92h-15.72s1.55,1.55,1.55,1.55h14.17v14.17s1.55,1.55,1.55,1.55v-1.07s0-14.65,0-14.65ZM157.61,144.49c.09-.38.41-1.65,1.13-2.9,1.14-1.99,2.68-2.99,4.59-2.99v-.05s0-.14,0-.14v-.05c-1.9,0-3.44-1.01-4.58-2.99-.72-1.25-1.04-2.52-1.13-2.9h5.91s0,12.03,0,12.03h-5.91Z"/>
      <path class="st1" d="M128.78,189v-.1s0-11.23,0-11.23v-1.55s0-1.79,0-1.79v-.1s-5.71,0-5.71,0c.09-.38.41-1.65,1.13-2.9,1.14-1.98,2.68-2.99,4.58-2.99v-.11s0,0,0,0v-1.79s0-1.55,0-1.55v-1.76h2.32s.05,0,.05,0v-5.71c.38.09,1.65.41,2.9,1.13,1.99,1.14,2.99,2.68,2.99,4.59h.09s2.27,0,2.27,0v3.33h1.55s0-3.33,0-3.33v-1.55s0-11.57,0-11.57h8.49s0-1.55,0-1.55h-8.49v-5.92s0-1.55,0-1.55h-1.55s-6.63,0-6.63,0l-1.55,1.55h8.18v5.92s0,1.55,0,1.55v11.57s-2.41,0-2.41,0c-.42-1.27-1.39-2.36-2.85-3.2-1.52-.87-3.06-1.17-3.07-1.18l-.12-.02v4.4s-2.17,0-2.17,0v-16.6s-1.55,1.55-1.55,1.55v15.05s0,1.55,0,1.55v1.76s0,1.55,0,1.55v1.95c-1.27.42-2.36,1.39-3.2,2.85-.87,1.52-1.17,3.06-1.18,3.07l-.02.12h4.4v1.69s-8.55,0-8.55,0v-3.17c0-.99-.75-1.79-1.68-1.79h-.77v-.29h-.63v.29h-.24v-.29h-.63v.29h-.24v-.29s-.63,0-.63,0v.29h-.24v-.29s-.63,0-.63,0v.29h-3.22v-7.16s-.15.15-.15.15v7.16h7.38c.85,0,1.53.74,1.53,1.64v3.24h-9.71l1.48,1.48h16.93v11.37c-1.18.39-2.2,1.25-3.01,2.54l.14.14c1.12-1.81,2.61-2.73,4.43-2.73ZM113.14,171.17v-.15h.34v.15h-.34ZM114.01,171.17v-.15h.34v.15s-.34,0-.34,0ZM114.88,171.17v-.15h.34s0,.15,0,.15h-.34ZM115.75,171.17v-.15h.34s0,.15,0,.15h-.34Z"/>
      <polygon class="st1" points="166.62 119.85 153.92 119.85 153.73 120.04 166.43 120.04 166.43 125.28 148.49 125.28 148.3 125.47 166.62 125.47 166.62 119.85"/>
      <path class="st1" d="M147.85,186.37v2.78h7.91s0-2.78,0-2.78h-7.91ZM148,189v-2.49s7.62,0,7.62,0v2.49h-7.62Z"/>
      <path class="st1" d="M146.35,195.79v16.94s10.92,0,10.92,0v-16.94h-10.92ZM146.49,212.58v-16.65h10.63v16.65s-10.63,0-10.63,0Z"/>
      <polygon class="st1" points="146.01 209.57 142.2 209.57 142.35 209.72 145.86 209.72 145.86 212.58 145.21 212.58 145.36 212.73 146.01 212.73 146.01 209.57"/>
      <path class="st1" d="M162.06,209.57h-4.46v3.15s4.46,0,4.46,0v-3.15ZM157.75,209.72h4.16s0,2.86,0,2.86h-4.16v-2.86Z"/>
      <path class="st1" d="M146.84,196.34v13.35h.39v1.65c0,.31.25.56.56.56h3.29c.31,0,.56-.25.56-.56v-1.65s.34,0,.34,0v1.65c0,.31.25.56.56.56h3.29c.31,0,.56-.25.56-.56v-1.65h.39v-13.35h-9.93ZM151.49,211.34c0,.23-.18.41-.41.41h-3.29c-.23,0-.41-.18-.41-.41v-1.65s4.11,0,4.11,0v1.65ZM156.24,211.34c0,.23-.18.41-.41.41h-3.29c-.23,0-.41-.18-.41-.41v-1.65h4.11v1.65ZM146.99,209.54v-13.06s9.64,0,9.64,0v13.06h-9.64Z"/>
      <path class="st1" d="M158.33,211.54h1.24v-.78h-1.24s0,.78,0,.78ZM159.43,211.39h-.95s0-.49,0-.49h.95v.49Z"/>
      <path class="st1" d="M145.28,210.76h-1.24s0,.65,0,.65l.13.13h1.11s0-.78,0-.78ZM144.19,210.91h.95s0,.49,0,.49h-.95s0-.49,0-.49Z"/>
      <path class="st1" d="M144.11,183.29v-2.38s2.38,0,2.38,0c1.56,0,2.82-1.27,2.82-2.82v-.07h-8.1s0,8.1,0,8.1h.07c1.56,0,2.82-1.27,2.82-2.82ZM141.36,178.16h7.81c-.04,1.44-1.22,2.6-2.68,2.6h-2.53v2.53c0,1.45-1.16,2.64-2.6,2.68v-7.81Z"/>
      <path class="st1" d="M159,180.9v8.47c0,.56.45,1.01,1.01,1.01h1.88s0-12.37,0-12.37h-8.1s0,1.88,0,1.88c0,.56.45,1.01,1.01,1.01h4.2ZM153.94,179.89v-1.74s7.81,0,7.81,0v12.08s-1.74,0-1.74,0c-.48,0-.87-.39-.87-.87v-8.61h-4.34c-.48,0-.87-.39-.87-.87Z"/>
      <path class="st1" d="M146.75,182.14l.03-.03s.06-.09.06-.14-.02-.1-.06-.14l-.55-.55c-.08-.08-.2-.08-.28,0l-.03.03h0c-.06.06-.07.14-.04.21-.12-.05-.24-.07-.37-.07-.27,0-.51.1-.7.29-.19.19-.29.44-.29.7s.02.25.07.37c-.07-.03-.15-.01-.21.04l-.03.03h0c-.08.08-.08.2,0,.28l.55.55c.08.08.2.08.28,0l.03-.03s.06-.09.06-.14-.02-.1-.06-.14l-.03-.03c.11.04.22.06.33.06.13,0,.25-.02.36-.07l.12.12c-.25.19-.5.35-.51.35h-.01c-.07.08-.06.19.02.27l.03.03c.08.08.18.09.25.03.06-.04.56-.35.83-.63.25-.25.59-.77.63-.83.03-.03.04-.06.04-.1,0-.05-.02-.1-.07-.15l-.03-.03c-.08-.08-.19-.09-.26-.02h-.01s-.16.27-.35.52l-.12-.12c.04-.11.07-.23.07-.36,0-.12-.02-.23-.06-.33l.03.03c.08.08.2.08.28,0ZM146.02,181.45s0-.03.01-.04l.03-.03s.05-.02.07,0l.55.55s.02.05,0,.07l-.03.03s-.05.02-.07,0l-.55-.55s-.01-.02-.01-.04ZM145.11,183.58l-.03.03s-.05.02-.07,0l-.55-.55s-.01-.02-.01-.04c0-.01,0-.03.01-.04l.03-.03s.05-.02.07,0l.55.55s.02.05,0,.07ZM147.03,182.51s.03,0,.05.02l.03.03s.02.04.02.05h0s-.36.58-.61.83c-.28.28-.81.61-.81.61h-.01s-.03.01-.05-.01l-.03-.03s-.02-.04-.02-.04c0,0,0,0,0,0,.08-.05.54-.34.83-.62.27-.27.57-.74.62-.83ZM146.11,183.4l-.1-.1c.07-.04.14-.09.2-.16.06-.06.11-.13.16-.2l.1.1c-.06.07-.11.13-.17.19-.06.06-.12.11-.19.17ZM146.36,182.45c0,.23-.09.44-.25.6-.16.16-.37.25-.6.25s-.44-.09-.6-.25c-.16-.16-.25-.37-.25-.6s.09-.44.25-.6c.16-.16.37-.25.6-.25s.44.09.6.25c.16.16.25.37.25.6Z"/>
      <path class="st1" d="M156.95,223.81v-.02s-.07-.29-.11-.6h.17c.1.22.27.39.48.5h-.04c-.11,0-.2.09-.2.2v.04c0,.11.09.2.2.2h.78c.11,0,.2-.09.2-.2v-.04c0-.08-.05-.15-.12-.18.35-.15.6-.5.6-.91,0-.41-.25-.76-.6-.91.07-.03.12-.1.12-.18v-.04c0-.11-.09-.2-.2-.2h-.78c-.11,0-.2.09-.2.2v.04c0,.11.09.2.2.2h.04c-.21.1-.39.28-.48.5h-.17c.04-.31.11-.6.11-.6v-.02c0-.09-.08-.17-.19-.17h-.04c-.11,0-.19.07-.2.16-.02.07-.15.64-.15,1.03,0,.35.13.96.15,1.03,0,.09.09.16.2.16h.04c.11,0,.2-.07.2-.17ZM156.82,223.04c0-.09-.01-.18-.01-.25,0-.08,0-.17.01-.25h.14c-.02.08-.03.17-.03.25,0,.09.01.17.03.25h-.14ZM158.28,223.88v.04s-.02.05-.05.05h-.78s-.05-.02-.05-.05v-.04s.02-.05.05-.05h.78s.05.02.05.05ZM157.4,221.69v-.04s.02-.05.05-.05h.78s.05.02.05.05v.04s-.02.05-.05.05h-.78s-.05-.02-.05-.05ZM157.91,221.94c.47,0,.85.38.85.85,0,.47-.38.85-.85.85-.47,0-.85-.38-.85-.85,0-.47.38-.85.85-.85ZM156.71,223.83s-.05-.01-.05-.02v-.02s-.15-.66-.15-1.01c0-.39.14-1,.14-1.01v-.02s.02-.02.05-.02h.04s.04.01.05.02c-.02.1-.14.62-.14,1.02,0,.39.12.93.14,1.02,0,0-.02.02-.05.02h-.04Z"/>
      <path class="st1" d="M126.17,154.08h.17c-.04.31-.11.6-.11.6v.02c0,.09.08.17.19.17h.04c.11,0,.19-.07.2-.16.02-.07.15-.64.15-1.03,0-.35-.13-.96-.15-1.03,0-.09-.09-.16-.2-.16h-.04c-.11,0-.2.07-.2.17v.02s.07.29.11.6h-.17c-.15-.35-.5-.59-.91-.59-.55,0-.99.45-.99.99,0,.55.45.99.99.99.41,0,.75-.24.91-.59ZM126.37,152.65s.02-.02.05-.02h.04s.05.01.05.02v.02s.15.66.15,1.01c0,.39-.14,1-.14,1.01v.02s-.02.02-.05.02h-.04s-.04-.01-.05-.02c.02-.1.14-.62.14-1.02,0-.39-.12-.93-.14-1.02ZM126.36,153.42c0,.09.01.18.01.25,0,.08,0,.17-.01.25h-.14c.02-.08.03-.17.03-.25s-.01-.17-.03-.25h.14ZM124.41,153.68c0-.47.38-.85.85-.85.47,0,.85.38.85.85s-.38.85-.85.85-.85-.38-.85-.85Z"/>
      <path class="st1" d="M125.26,150.3c.41,0,.75-.24.91-.59h.17c-.04.31-.11.6-.11.6v.02c0,.09.08.17.19.17h.04c.11,0,.19-.07.2-.16.02-.07.15-.64.15-1.03,0-.35-.13-.96-.15-1.03,0-.09-.09-.16-.2-.16h-.04c-.11,0-.2.07-.2.17v.02s.07.29.11.6h-.17c-.13-.3-.4-.52-.73-.58l-.13.13c.45.02.8.39.8.84,0,.47-.38.85-.85.85-.45,0-.82-.36-.84-.8l-.13.13c.08.46.49.82.98.82ZM126.37,148.29s.02-.02.05-.02h.04s.05.01.05.02v.02s.15.66.15,1.01c0,.39-.14,1-.14,1.01v.02s-.02.02-.05.02h-.04s-.04-.01-.05-.02c.02-.1.14-.62.14-1.02,0-.39-.12-.93-.14-1.02ZM126.25,149.31c0-.09-.01-.17-.03-.25h.14c0,.09.01.18.01.25,0,.08,0,.17-.01.25h-.14c.02-.08.03-.17.03-.25Z"/>
      <path class="st1" d="M121.14,159.57c.35,0,.96-.13,1.03-.15.09,0,.16-.09.16-.2v-.04c0-.11-.07-.2-.17-.2h-.02s-.29.07-.6.11v-.17c.35-.15.59-.5.59-.91,0-.55-.45-.99-.99-.99-.55,0-.99.45-.99.99,0,.41.24.75.59.91v.17c-.31-.04-.6-.11-.6-.11h-.02c-.09,0-.17.08-.17.19v.04c0,.11.07.19.16.2.07.02.64.15,1.03.15ZM120.29,158.02c0-.47.38-.85.85-.85.47,0,.85.38.85.85,0,.47-.38.85-.85.85s-.85-.38-.85-.85ZM120.88,158.98c.08.02.17.03.25.03s.17-.01.25-.03v.14c-.09,0-.18.01-.25.01-.08,0-.17,0-.25-.01v-.14ZM120.1,159.23v-.04s.01-.04.02-.05c.1.02.62.14,1.02.14.39,0,.93-.12,1.02-.14,0,0,.02.02.02.05v.04s-.01.05-.02.05h-.02s-.66.15-1.01.15c-.39,0-1-.14-1.01-.14h-.02s-.02-.02-.02-.05Z"/>
      <path class="st1" d="M154.29,187.67c-.02-.34-.3-.6-.64-.6h-3.68c-.34,0-.62.27-.64.6h-1.05v.78s7.07,0,7.07,0v-.78h-1.05ZM149.97,187.21h3.68c.25,0,.46.19.49.43h-4.67c.04-.24.24-.43.49-.43ZM148.42,188.3v-.49h6.78v.49s-6.78,0-6.78,0Z"/>
      <path class="st1" d="M166.68,168.98v-11.81s-2.78,0-2.78,0v11.81h2.78ZM166.54,157.31v11.52s-2.49,0-2.49,0v-11.52s2.49,0,2.49,0Z"/>
      <path class="st1" d="M165.38,168.35v-1.58c.34-.02.6-.3.6-.64v-6.11c0-.34-.27-.62-.6-.64v-1.58s-.78,0-.78,0v10.55s.78,0,.78,0ZM165.84,160.02v6.11c0,.25-.19.46-.43.49v-7.1c.24.04.43.24.43.49ZM165.23,157.94v10.26s-.49,0-.49,0v-10.26s.49,0,.49,0Z"/>
      <path class="st1" d="M132.08,166.11c0-.72-.59-1.31-1.31-1.31-.72,0-1.31.59-1.31,1.31,0,.72.59,1.31,1.31,1.31.72,0,1.31-.59,1.31-1.31ZM129.6,166.11c0-.64.52-1.16,1.16-1.16.64,0,1.16.52,1.16,1.16,0,.64-.52,1.16-1.16,1.16-.64,0-1.16-.52-1.16-1.16Z"/>
      <path class="st1" d="M130.77,166.77c.09.23.25.28.32.29.15.03.3-.06.35-.2.02-.06.06-.22-.1-.42.25.03.37-.08.41-.13.05-.06.07-.13.07-.2s-.02-.15-.07-.2c-.04-.05-.16-.16-.41-.13.15-.2.12-.36.1-.42-.05-.15-.2-.23-.35-.2-.06.01-.22.06-.32.29-.09-.23-.25-.28-.32-.29-.15-.03-.3.06-.35.2-.02.06-.06.22.1.42-.25-.03-.37.08-.41.13-.1.12-.1.29,0,.41.04.05.16.16.41.13-.15.2-.12.36-.1.42.05.15.2.23.35.2.06-.01.22-.06.32-.29ZM131.3,166.81c-.03.08-.11.13-.19.11-.12-.02-.24-.16-.26-.48.07-.02.13-.05.17-.1.27.18.33.36.28.47ZM131.64,165.99c.05.06.05.16,0,.22-.08.09-.26.13-.55-.01,0-.03.01-.06.01-.1,0-.03,0-.07-.01-.1.29-.14.47-.1.55-.01ZM131.11,165.29c.08-.01.16.03.19.11.04.11-.02.29-.28.47-.05-.05-.1-.08-.17-.1.02-.32.15-.46.26-.48ZM130.23,165.41c.03-.08.11-.13.19-.11.12.02.24.16.26.48-.07.02-.13.05-.17.1-.27-.18-.33-.36-.28-.47ZM130.77,165.91c.11,0,.19.09.19.19,0,.11-.09.19-.19.19-.11,0-.19-.09-.19-.19,0-.11.09-.19.19-.19ZM129.89,166.22c-.05-.06-.05-.16,0-.22.08-.09.26-.13.55.01,0,.03-.01.06-.01.1,0,.03,0,.07.01.1-.29.14-.47.1-.55.01ZM130.23,166.81c-.04-.11.02-.29.28-.47.05.05.1.08.17.1-.02.32-.15.46-.26.48-.08.01-.16-.03-.19-.11Z"/>
      <path class="st1" d="M161.14,146.64c0-.72-.59-1.31-1.31-1.31-.72,0-1.31.59-1.31,1.31,0,.72.59,1.31,1.31,1.31s1.31-.59,1.31-1.31ZM158.67,146.64c0-.64.52-1.16,1.16-1.16.64,0,1.16.52,1.16,1.16,0,.64-.52,1.16-1.16,1.16-.64,0-1.16-.52-1.16-1.16Z"/>
      <path class="st1" d="M159.83,147.3c.09.23.25.28.32.29.15.03.3-.06.35-.2.02-.06.06-.22-.1-.42.25.03.37-.08.41-.13.05-.06.07-.13.07-.2,0-.07-.02-.15-.07-.2-.04-.05-.16-.16-.41-.13.15-.2.12-.36.1-.42-.05-.15-.2-.23-.35-.2-.06.01-.22.06-.32.29-.09-.23-.25-.28-.32-.29-.15-.03-.3.06-.35.2-.02.06-.06.22.1.42-.25-.03-.37.08-.41.13-.1.12-.1.29,0,.41.04.05.16.16.41.13-.15.2-.12.36-.1.42.05.15.2.23.35.2.06-.01.22-.06.32-.29ZM160.36,147.34c-.03.08-.11.13-.19.11-.12-.02-.24-.16-.26-.48.07-.02.13-.05.17-.1.27.18.33.36.28.47ZM160.7,146.53c.05.06.05.16,0,.22-.08.09-.26.13-.55-.01,0-.03.01-.06.01-.1,0-.03,0-.07-.01-.1.29-.14.47-.1.55-.01ZM160.17,145.83c.08-.01.16.03.19.11.04.11-.02.29-.28.47-.05-.05-.1-.08-.17-.1.02-.32.15-.46.26-.48ZM159.3,145.94c.03-.08.11-.13.19-.11.12.02.24.16.26.48-.07.02-.13.05-.17.1-.27-.18-.33-.36-.28-.47ZM159.83,146.45c.11,0,.19.09.19.19s-.09.19-.19.19c-.11,0-.19-.09-.19-.19s.09-.19.19-.19ZM158.96,146.75c-.05-.06-.05-.16,0-.22.08-.09.26-.13.55.01,0,.03-.01.06-.01.1s0,.07.01.1c-.29.14-.47.1-.55.01ZM159.3,147.34c-.04-.11.02-.29.28-.47.05.05.1.08.17.1-.02.32-.15.46-.26.48-.08.01-.16-.03-.19-.11Z"/>
      <path class="st1" d="M161.14,130.31c0-.72-.59-1.31-1.31-1.31-.72,0-1.31.59-1.31,1.31s.59,1.31,1.31,1.31,1.31-.59,1.31-1.31ZM158.67,130.31c0-.64.52-1.16,1.16-1.16.64,0,1.16.52,1.16,1.16,0,.64-.52,1.16-1.16,1.16s-1.16-.52-1.16-1.16Z"/>
      <path class="st1" d="M159.83,130.97c.09.23.25.28.32.29.15.03.3-.06.35-.2.02-.06.06-.22-.1-.42.25.03.37-.08.41-.13.05-.06.07-.13.07-.2,0-.07-.02-.15-.07-.2-.04-.05-.16-.16-.41-.13.15-.2.12-.36.1-.42-.05-.15-.2-.23-.35-.2-.06.01-.22.06-.32.29-.09-.23-.25-.28-.32-.29-.15-.03-.3.06-.35.2-.02.06-.06.22.1.42-.25-.03-.37.08-.41.13-.1.12-.1.29,0,.41.04.05.16.16.41.13-.15.2-.12.36-.1.42.05.15.2.23.35.2.06-.01.22-.06.32-.29ZM160.36,131.01c-.03.08-.11.13-.19.11-.12-.02-.24-.16-.26-.48.07-.02.13-.05.17-.1.27.18.33.36.28.47ZM160.7,130.2c.05.06.05.16,0,.22-.08.09-.26.13-.55-.01,0-.03.01-.06.01-.1,0-.03,0-.07-.01-.1.29-.14.47-.1.55-.01ZM160.17,129.5c.08-.01.16.03.19.11.04.11-.02.29-.28.47-.05-.05-.1-.08-.17-.1.02-.32.15-.46.26-.48ZM159.3,129.61c.03-.08.11-.13.19-.11.12.02.24.16.26.48-.07.02-.13.05-.17.1-.27-.18-.33-.36-.28-.47ZM159.83,130.12c.11,0,.19.09.19.19,0,.11-.09.19-.19.19-.11,0-.19-.09-.19-.19s.09-.19.19-.19ZM158.96,130.42c-.05-.06-.05-.16,0-.22.08-.09.26-.13.55.01,0,.03-.01.06-.01.1,0,.03,0,.07.01.1-.29.14-.47.1-.55.01ZM159.3,131.01c-.04-.11.02-.29.28-.47.05.05.1.08.17.1-.02.32-.15.46-.26.48-.08.01-.16-.03-.19-.11Z"/>
      <path class="st1" d="M160.95,172.98c0,.72.59,1.31,1.31,1.31.72,0,1.31-.59,1.31-1.31,0-.72-.59-1.31-1.31-1.31-.72,0-1.31.59-1.31,1.31ZM163.42,172.98c0,.64-.52,1.16-1.16,1.16s-1.16-.52-1.16-1.16c0-.64.52-1.16,1.16-1.16.64,0,1.16.52,1.16,1.16Z"/>
      <path class="st1" d="M162.26,172.31c-.09-.23-.25-.28-.32-.29-.15-.03-.3.06-.35.2-.02.06-.06.22.1.42-.25-.03-.37.08-.41.13-.1.12-.1.29,0,.41.04.05.16.16.41.13-.15.2-.12.36-.1.42.05.15.2.23.35.2.06-.01.22-.06.32-.29.09.23.25.28.32.29.15.03.3-.06.35-.2.02-.06.06-.22-.1-.42.25.03.37-.08.41-.13.05-.06.07-.13.07-.2s-.02-.15-.07-.2c-.04-.05-.16-.16-.41-.13.15-.2.12-.36.1-.42-.05-.15-.2-.23-.35-.2-.06.01-.22.06-.32.29ZM161.73,172.28c.03-.08.11-.13.19-.11.12.02.24.16.26.48-.07.02-.13.05-.17.1-.27-.18-.32-.36-.28-.47ZM161.38,173.09c-.05-.06-.05-.16,0-.22.08-.09.26-.13.55.01,0,.03-.01.06-.01.1,0,.03,0,.07.01.1-.29.14-.47.1-.55.01ZM161.92,173.79c-.08.01-.16-.03-.19-.11-.04-.11.02-.29.28-.47.05.05.1.08.17.1-.02.32-.15.46-.26.48ZM162.79,173.68c-.03.08-.11.13-.19.11-.12-.02-.24-.16-.26-.48.07-.02.13-.05.17-.1.27.18.33.36.28.47ZM162.26,173.17c-.11,0-.19-.09-.19-.19s.09-.19.19-.19.19.09.19.19-.09.19-.19.19ZM163.13,172.87c.05.06.05.16,0,.22-.08.09-.26.13-.55-.01,0-.03.01-.06.01-.1,0-.03,0-.07-.01-.1.29-.14.47-.1.55-.01ZM162.79,172.28c.04.11-.02.29-.28.47-.05-.05-.1-.08-.17-.1.02-.32.15-.46.26-.48.08-.01.16.03.19.11Z"/>
      <path class="st1" d="M163.57,153.17c0-.72-.59-1.31-1.31-1.31-.72,0-1.31.59-1.31,1.31,0,.72.59,1.31,1.31,1.31.72,0,1.31-.59,1.31-1.31ZM161.09,153.17c0-.64.52-1.16,1.16-1.16.64,0,1.16.52,1.16,1.16,0,.64-.52,1.16-1.16,1.16s-1.16-.52-1.16-1.16Z"/>
      <path class="st1" d="M162.26,153.83c.09.23.25.28.32.29.15.03.3-.06.35-.2.02-.06.06-.22-.1-.42.25.03.37-.08.41-.13.05-.06.07-.13.07-.2,0-.07-.02-.15-.07-.2-.04-.05-.16-.16-.41-.13.15-.2.12-.36.1-.42-.05-.15-.2-.23-.35-.2-.06.01-.22.06-.32.29-.09-.23-.25-.28-.32-.29-.15-.03-.3.06-.35.2-.02.06-.06.22.1.42-.25-.03-.37.08-.41.13-.1.12-.1.29,0,.41.04.05.16.16.41.13-.15.2-.12.36-.1.42.05.15.2.23.35.2.06-.01.22-.06.32-.29ZM162.79,153.87c-.03.08-.11.13-.19.11-.12-.02-.24-.16-.26-.48.07-.02.13-.05.17-.1.27.18.33.36.28.47ZM163.13,153.06c.05.06.05.16,0,.22-.08.09-.26.13-.55-.01,0-.03.01-.06.01-.1,0-.03,0-.07-.01-.1.29-.14.47-.1.55-.01ZM162.6,152.36c.08-.01.16.03.19.11.04.11-.02.29-.28.47-.05-.05-.1-.08-.17-.1.02-.32.15-.46.26-.48ZM161.73,152.47c.03-.08.11-.13.19-.11.12.02.24.16.26.48-.07.02-.13.05-.17.1-.27-.18-.32-.36-.28-.47ZM162.26,152.97c.11,0,.19.09.19.19,0,.11-.09.19-.19.19-.11,0-.19-.09-.19-.19s.09-.19.19-.19ZM161.38,153.28c-.05-.06-.05-.16,0-.22.08-.09.26-.13.55.01,0,.03-.01.06-.01.1s0,.07.01.1c-.29.14-.47.1-.55.01ZM161.73,153.87c-.04-.11.02-.29.28-.47.05.05.1.08.17.1-.02.32-.15.46-.26.48-.08.01-.16-.03-.19-.11Z"/>
      <path class="st1" d="M145.76,150.58h-4.16s0,15.6,0,15.6h4.16s0-15.6,0-15.6ZM141.74,150.72h3.87v15.31s-3.87,0-3.87,0v-15.31Z"/>
      <path class="st1" d="M150.11,155.9v.15s0,13.32,0,13.32v.15s0,.57,0,.57c0,.71.58,1.29,1.29,1.29h3.06c.71,0,1.29-.58,1.29-1.29v-.57s0-.15,0-.15v-13.32s0-.15,0-.15v-.57c0-.71-.58-1.29-1.29-1.29h-3.06c-.71,0-1.29.58-1.29,1.29v.57ZM150.26,156.04h1.48s0,13.32,0,13.32h-1.48s0-13.32,0-13.32ZM155.62,170.07c0,.63-.52,1.15-1.15,1.15h-3.06c-.63,0-1.15-.52-1.15-1.15v-.57s1.48,0,1.48,0h.15s3.74,0,3.74,0v.57ZM155.62,169.36h-3.74v-2.03s3.74,0,3.74,0v2.03ZM155.62,167.19h-3.74v-.42s3.74,0,3.74,0v.42ZM155.62,166.62h-3.74v-.44s3.74,0,3.74,0v.44ZM155.62,166.03h-3.74v-2.68h3.74v2.68ZM155.62,163.21h-3.74v-.42s3.74,0,3.74,0v.42ZM155.62,162.64h-3.74v-.44s3.74,0,3.74,0v.44ZM155.62,162.05h-3.74s0-2.68,0-2.68h3.74v2.68ZM155.62,159.23h-3.74v-.42s3.74,0,3.74,0v.42ZM155.62,158.66h-3.74v-.44s3.74,0,3.74,0v.44ZM155.62,158.07h-3.74s0-2.03,0-2.03h3.74s0,2.03,0,2.03ZM151.41,154.18h3.06c.63,0,1.15.52,1.15,1.15v.57s-3.74,0-3.74,0h-.15s-1.48,0-1.48,0v-.57c0-.63.52-1.15,1.15-1.15Z"/>
      <path class="st1" d="M112.34,171.56v4.49h4.54v-4.49h-4.54ZM112.49,175.9v-4.19s4.25,0,4.25,0v4.19h-4.25Z"/>
      <path class="st1" d="M113.89,174.99c0,.4.32.72.72.72.4,0,.72-.32.72-.72,0-.4-.32-.72-.72-.72-.4,0-.72.32-.72.72ZM115.18,174.99c0,.32-.26.57-.57.57s-.57-.26-.57-.57.26-.57.57-.57c.32,0,.57.26.57.57Z"/>
      <path class="st1" d="M115.33,172.62c0-.4-.32-.72-.72-.72-.4,0-.72.32-.72.72,0,.4.32.72.72.72.4,0,.72-.32.72-.72ZM114.04,172.62c0-.32.26-.57.57-.57s.57.26.57.57c0,.32-.26.57-.57.57-.32,0-.57-.26-.57-.57Z"/>
      <path class="st1" d="M114.14,173.8c0-.4-.32-.72-.72-.72s-.72.32-.72.72c0,.4.32.72.72.72.4,0,.72-.32.72-.72ZM112.85,173.8c0-.32.26-.57.57-.57.32,0,.57.26.57.57,0,.32-.26.57-.57.57-.32,0-.57-.26-.57-.57Z"/>
      <path class="st1" d="M115.07,173.8c0,.4.32.72.72.72.4,0,.72-.32.72-.72s-.32-.72-.72-.72-.72.32-.72.72ZM116.37,173.8c0,.32-.26.57-.57.57s-.57-.26-.57-.57.26-.57.57-.57.57.26.57.57Z"/>
      <path class="st1" d="M106.19,168.63h2.31c.42,0,.76-.34.76-.76v-1.65c0-.42-.34-.76-.76-.76h-.17s-.15.15-.15.15h.32c.34,0,.62.28.62.62v1.65c0,.34-.28.62-.62.62h-2.31c-.24,0-.45-.14-.55-.35l-.11.11c.13.23.38.39.66.39Z"/>
      <path class="st1" d="M109.06,164.71l-.06.06s.04-.04.06-.06Z"/>
      <path class="st1" d="M120.04,156.65h2.19c.86,0,1.56-.7,1.56-1.56v-5.11s-.15.15-.15.15v4.97c0,.78-.64,1.42-1.42,1.42h-2.19c-.76,0-1.38-.61-1.41-1.37l-.13.13c.09.77.74,1.38,1.54,1.38Z"/>
      <path class="st1" d="M127.04,158.3h-1.84v8.8s1.84,0,1.84,0v-8.8ZM125.34,166.96v-8.51h1.55v8.51h-1.55Z"/>
      <path class="st1" d="M159.43,226.47h2.46s0-7.36,0-7.36h-2.46s0,7.36,0,7.36ZM161.75,226.32h-2.17s0-7.07,0-7.07h2.17v7.07Z"/>
      <polygon class="st1" points="161.41 226.88 161.41 228.79 161.82 229.19 161.82 226.88 161.41 226.88"/>
      <polygon class="st1" points="160.67 226.88 160.67 228.04 161.08 228.45 161.08 226.88 160.67 226.88"/>
      <polygon class="st1" points="159.93 226.88 159.93 227.3 160.33 227.71 160.33 226.88 159.93 226.88"/>
      <polygon class="st1" points="159.51 226.88 159.59 226.97 159.59 226.88 159.51 226.88"/>
      <rect class="st1" x="161.41" y="215.92" width=".41" height="2.78"/>
      <rect class="st1" x="160.67" y="215.92" width=".41" height="2.78"/>
      <rect class="st1" x="159.93" y="215.92" width=".41" height="2.78"/>
      <rect class="st1" x="159.18" y="215.92" width=".41" height="2.78"/>
      <rect class="st1" x="158.44" y="215.92" width=".41" height="2.78"/>
      <rect class="st1" x="157.7" y="215.92" width=".41" height="2.78"/>
      <rect class="st1" x="156.96" y="215.92" width=".41" height="2.78"/>
      <rect class="st1" x="156.22" y="215.92" width=".41" height="2.78"/>
      <rect class="st1" x="155.47" y="215.92" width=".41" height="2.78"/>
      <rect class="st1" x="154.73" y="215.92" width=".41" height="2.78"/>
      <rect class="st1" x="153.99" y="215.92" width=".41" height="2.78"/>
      <rect class="st1" x="153.25" y="215.92" width=".41" height="2.78"/>
      <rect class="st1" x="152.5" y="215.92" width=".41" height="2.78"/>
      <rect class="st1" x="151.76" y="215.92" width=".41" height="2.78"/>
      <polygon class="st1" points="151.43 215.92 151.02 215.92 151.02 218.39 151.32 218.69 151.43 218.69 151.43 215.92"/>
      <polygon class="st1" points="150.28 215.92 150.28 217.65 150.68 218.06 150.68 215.92 150.28 215.92"/>
      <polygon class="st1" points="149.53 215.92 149.53 216.91 149.94 217.32 149.94 215.92 149.53 215.92"/>
      <polygon class="st1" points="148.79 215.92 148.79 216.17 149.2 216.57 149.2 215.92 148.79 215.92"/>
      <polygon class="st1" points="138.4 198.38 138.4 205.77 138.54 205.92 138.54 198.52 139 198.52 139 206.38 139.15 206.52 139.15 198.38 138.4 198.38"/>
      <polygon class="st1" points="154.08 128.75 145.02 128.75 144.88 128.9 153.93 128.9 153.93 129.36 144.41 129.36 144.27 129.5 154.08 129.5 154.08 128.75"/>
      <polygon class="st1" points="138.95 146.21 138.95 142.96 130.81 142.96 130.66 143.11 138.8 143.11 138.8 146.07 129.38 146.07 129.38 144.39 129.23 144.54 129.23 146.21 138.95 146.21"/>
      <path class="st1" d="M138.95,156.65v-9.72s-1.7,0-1.7,0v9.72s1.7,0,1.7,0ZM138.8,147.08v9.43h-1.41v-9.43h1.41Z"/>
      <path class="st1" d="M130.93,146.93h-1.7s0,9.72,0,9.72h1.7s0-9.72,0-9.72ZM129.38,147.08h1.41s0,9.43,0,9.43h-1.41v-9.43Z"/>
      <path class="st1" d="M136.91,159.39c0,.56.46,1.02,1.02,1.02.56,0,1.02-.46,1.02-1.02s-.46-1.02-1.02-1.02c-.56,0-1.02.46-1.02,1.02ZM138.8,159.39c0,.48-.39.88-.88.88-.48,0-.88-.39-.88-.88,0-.48.39-.88.88-.88.48,0,.88.39.88.88Z"/>
      <polygon class="st1" points="118.63 177.91 112.02 177.91 112.02 179.39 112.17 179.54 112.17 178.06 118.48 178.06 118.48 183.25 115.88 183.25 116.02 183.4 118.63 183.4 118.63 177.91"/>
      <path class="st1" d="M125.81,181.64v-3.05h-.42v-.68h-2.81s0,.68,0,.68h-.42v3.05c0,1.01.82,1.83,1.83,1.83,1.01,0,1.83-.82,1.83-1.83ZM122.72,178.06h2.52v.53h-2.52v-.53ZM122.3,181.64v-2.9h.28s2.81,0,2.81,0h.28s0,2.9,0,2.9c0,.93-.76,1.68-1.68,1.68-.93,0-1.68-.76-1.68-1.68Z"/>
      <polygon class="st1" points="123.5 178.33 123.5 178.4 124.46 178.4 124.46 178.33 124.46 178.25 123.5 178.25 123.5 178.33"/>
      <path class="st1" d="M141.6,142v5.8h6.04s0-5.8,0-5.8h-6.04ZM141.74,147.66v-5.51s5.75,0,5.75,0v5.51s-5.75,0-5.75,0Z"/>
      <polygon class="st1" points="149.98 123.79 149.78 123.99 149.78 124.64 149.13 124.64 148.94 124.83 149.98 124.83 149.98 123.79"/>
      <polygon class="st1" points="155.25 124.83 155.25 120.49 153.28 120.49 153.09 120.68 155.05 120.68 155.05 124.64 150.61 124.64 150.61 123.16 150.42 123.36 150.42 124.83 155.25 124.83"/>
      <path class="st1" d="M155.69,120.49v4.34h4.83s0-4.34,0-4.34h-4.83ZM155.88,124.64v-3.95s4.45,0,4.45,0v3.95s-4.45,0-4.45,0Z"/>
      <path class="st1" d="M160.96,120.49v4.34h4.83s0-4.34,0-4.34h-4.83ZM161.15,124.64v-3.95s4.45,0,4.45,0v3.95s-4.45,0-4.45,0Z"/>
      <polygon class="st1" points="164.92 113.18 164.92 108.85 164.73 109.04 164.73 112.54 161.23 112.54 161.04 112.73 164.73 112.73 164.73 112.98 160.79 112.98 160.6 113.18 163.31 113.18 160.19 113.58 159.97 113.8 164.83 113.18 164.92 113.18"/>
    </g>
  </g>
</svg>